<!-- icon666.com - MILLIONS vector ICONS FREE --><svg viewBox="0 0 61 61" xmlns="http://www.w3.org/2000/svg"><g id="Page-1" fill="none" fill-rule="evenodd"><g id="045---Dog-Biscuit" fill-rule="nonzero"><path id="Shape" d="m15.919 34.267 18.348-18.348c.6702402-.6694568.7756547-1.7185825.252-2.508-2.0424147-3.0855497-1.7022524-7.16914952.8225215-9.87425418s6.5752447-3.32573677 9.7941473-1.50070512c3.2189026 1.82503166 4.7661688 5.61943087 3.7413312 9.1749593 3.5553867-1.0242694 7.349297.5231859 9.1740593 3.7419038 1.8247624 3.2187179 1.2042302 7.2688183-1.5005095 9.793553-2.7047398 2.5247347-6.7879227 2.865309-9.8735498.8235432-.7894175-.5236547-1.8385432-.4182402-2.508.252l-18.351 18.344c-.6702402.6694568-.7756547 1.7185825-.252 2.508 2.0417658 3.0856271 1.7011915 7.16881-.8235432 9.8735498-2.5247347 2.7047397-6.5748351 3.3252719-9.793553 1.5005095-3.2187179-1.8247623-4.7661732-5.6186726-3.7419038-9.1740593-3.55552843 1.0248376-7.34992764-.5224286-9.1749593-3.7413312-1.82503165-3.2189026-1.20439954-7.2693734 1.50070512-9.7941473s6.78870448-2.8649362 9.87425418-.8225215c.7895751.5266488 1.8411814.4224092 2.512-.249z" fill="#ffdc00"></path><path id="Shape" d="m42.9 2.524c2.7185209 1.98104924 3.9074251 5.45105082 2.975 8.683.9921208-.2770933 2.0283066-.3606128 3.052-.246.6859378-2.65351641-.0402073-5.47332065-1.9224819-7.46548089s-4.6563897-2.87695861-7.3445181-2.34251911c1.1705465.20351015 2.2789036.67250942 3.24 1.371z" fill="#fec108"></path><path id="Shape" d="m25.818 44.166 18.322-18.322c-.157-.089-.314-.178-.466-.278-.7894175-.5236547-1.8385432-.4182402-2.508.252l-18.348 18.348c-.6702402.6694568-.7756547 1.7185825-.252 2.508 2.2909421 3.4623699 1.5525845 8.1018614-1.7 10.682-1.0040604.7979269-2.1876008 1.3388955-3.448 1.576 3.1569059.6042054 6.3681537-.7445489 8.1468384-3.4217489 1.7786846-2.6772 1.7775658-6.1601943-.0028384-8.8362511-.5226192-.7903381-.4155224-1.8395519.256-2.508z" fill="#fec108"></path><path id="Shape" d="m57.56 14.182c-1.8202546-2.4917983-4.9145528-3.7100444-7.945-3.128 3.7647585.7251722 6.4831339 4.0231236 6.4762924 7.8570817-.0068416 3.8339581-2.7369698 7.1221868-6.5042924 7.8339183 3.2245144.6168736 6.4985972-.7988919 8.2577551-3.5707846 1.759158-2.7718928 1.6462566-6.3371787-.2847551-8.9922154z" fill="#fec108"></path><g fill="#ff9801"><circle id="Oval" cx="41" cy="8" r="1"></circle><circle id="Oval" cx="51" cy="19" r="1"></circle><circle id="Oval" cx="9" cy="41" r="1"></circle><circle id="Oval" cx="19" cy="52" r="1"></circle><circle id="Oval" cx="30" cy="30" r="1"></circle><circle id="Oval" cx="23" cy="37" r="1"></circle><circle id="Oval" cx="37" cy="23" r="1"></circle></g><path id="Shape" d="m50.142 9.942c.3474973-3.19535258-1.0420191-6.33225622-3.642-8.222-3.2796331-2.36385395-7.7280263-2.27085618-10.906.228-3.6684452 2.89786439-4.4953969 8.1276812-1.9 12.016.2565553.3939057.2041139.9133254-.126 1.248l-18.357 18.348c-.3331097.3334258-.8549657.3861132-1.248.126-3.8884294-2.5948923-9.11787471-1.7679993-12.016 1.9-2.50055391 3.1804898-2.59314674 7.6322878-.227 10.914 1.88885852 2.6019876 5.02650425 3.9931899 8.223 3.646-.41447027 3.9446435 1.8022716 7.6955828 5.4577151 9.234976 3.6554434 1.5393931 7.8877043.5042804 10.4200106-2.5484926 2.5323062-3.052773 2.7675881-7.4034204.5792743-10.7114834-.2565553-.3939057-.2041139-.9133254.126-1.248l18.347-18.348c.3344258-.330435.8538669-.3832948 1.248-.127 3.8883188 2.5953969 9.1181356 1.7684452 12.016-1.9 2.4978566-3.1783312 2.5908403-7.6260514.228-10.906-1.8891406-2.6019896-5.0260324-3.99438348-8.223-3.65zm6.434 13.3c-2.2527868 2.8560207-6.3212757 3.5031319-9.349 1.487-1.1871158-.7825414-2.7605094-.6242834-3.768.379l-18.348 18.351c-1.0032834 1.0074906-1.1615414 2.5808842-.379 3.768 1.7873905 2.6997062 1.4900728 6.2729201-.7189197 8.6400978-2.2089926 2.3671777-5.7531471 2.9105226-8.5698319 1.313818-2.8166847-1.5967045-4.1707886-4.9167433-3.2742484-8.0279158.1002625-.3494626.0029622-.7258091-.2541143-.9828857-.2570766-.2570765-.6334231-.3543768-.9828857-.2541143-3.11098109.8963068-6.4307137-.457693-8.02741442-3.2740943-1.59670072-2.8164012-1.05372261-6.3602853 1.3129703-8.5694331s5.93953002-2.5070988 8.63944412-.7204726c1.1868866.7828012 2.7602585.6249629 3.768-.378l18.349-18.348c1.0032834-1.0074906 1.1615414-2.5808842.379-3.768-1.7875059-2.6995758-1.4904094-6.27274943.7183887-8.64004701 2.2087981-2.36729759 5.7528526-2.91090923 8.5696361-1.31447018 2.8167835 1.59643906 4.1711806 4.91629512 3.2749752 8.02751719-.1000772.3492442-.0028702.725292.2539179.9822878s.632757.3545069.9820821.2547122c2.9252119-.8441529 6.0606142.2992815 7.7556548 2.8283715 1.6950405 2.52909 1.5609614 5.8637884-.3316548 8.2486285z" fill="#000"></path></g></g></svg>