<?xml version="1.0" encoding="iso-8859-1"?>
<!-- Uploaded to: SVG Repo, www.svgrepo.com, Generator: SVG Repo Mixer Tools -->
<svg height="800px" width="800px" version="1.1" id="Layer_1" xmlns="http://www.w3.org/2000/svg" xmlns:xlink="http://www.w3.org/1999/xlink" 
	 viewBox="0 0 512 512" xml:space="preserve">
<path style="fill:#C13636;" d="M44.259,219.806l183.396,183.396c63.12,63.118,165.822,63.118,228.941,0
	c24.84-24.842,39.897-55.813,45.188-88.09c8.148,49.738-6.91,102.575-45.188,140.854c-63.118,63.118-165.822,63.118-228.941,0
	L44.259,272.571C13.406,241.72,2.291,198.491,10.91,158.718C15.764,181.121,26.879,202.428,44.259,219.806z"/>
<path style="fill:#D33D3D;" d="M456.596,174.262c-33.073-33.073-78.735-50.175-125.43-47.02
	c-14.734-0.26-49.426-3.591-73.329-27.495c-4.583-4.584-8.655-9.798-12.117-15.522c-6.207-14.731-15.124-27.966-26.518-39.36
	C170.969-3.367,92.49-3.368,44.261,44.862C-3.973,93.093-3.974,171.576,44.259,219.806l183.396,183.396
	c63.12,63.118,165.822,63.118,228.941,0C519.716,340.082,519.716,237.38,456.596,174.262z M424.327,370.934
	c-45.326,45.326-119.078,45.327-164.404,0L95.318,206.245l-18.792-18.707c-30.44-30.439-30.437-79.968,0.002-110.409
	c30.439-30.437,79.964-30.436,110.405,0.002c7.471,7.472,13.25,16.179,17.174,25.878c0.405,1.009,0.886,1.985,1.432,2.926
	c5.592,9.61,12.334,18.385,20.029,26.078c34.979,34.982,81.433,40.625,106.012,40.874c0.639,0.008,1.278-0.013,1.915-0.061
	c33.805-2.501,66.912,9.785,90.832,33.705C469.656,251.858,469.653,325.607,424.327,370.934z"/>
<path style="fill:#E95353;" d="M424.327,206.529c-23.92-23.92-57.026-36.206-90.832-33.705c-0.637,0.048-1.277,0.069-1.915,0.061
	c-24.579-0.247-71.034-5.891-106.012-40.874c-7.695-7.693-14.436-16.469-20.029-26.078c-0.546-0.941-1.027-1.916-1.432-2.926
	c-3.923-9.699-9.702-18.405-17.174-25.878c-30.44-30.438-79.965-30.438-110.405-0.002c-30.439,30.441-30.443,79.97-0.002,110.409
	l18.792,18.707l164.605,164.689c45.326,45.327,119.078,45.326,164.404,0S469.656,251.858,424.327,206.529z"/>
<g style="opacity:0.15;">
	<path style="fill:#202020;" d="M286.485,359.644L121.881,194.955l-18.792-18.707c-30.44-30.439-30.437-79.968,0.002-110.409
		c3.68-3.68,7.644-6.904,11.815-9.694c-14.073,3.083-27.456,10.063-38.377,20.985c-30.439,30.441-30.443,79.97-0.002,110.409
		l18.792,18.707l164.605,164.689c38.085,38.085,96.235,44.164,140.73,18.249C361.383,400.346,317.346,390.505,286.485,359.644z"/>
</g>
<path style="fill:#FFF1CE;" d="M342.251,241.975c-27.606,0-49.982,22.377-49.982,49.981c0,27.604,22.377,49.981,49.982,49.981
	c27.604,0,49.98-22.377,49.98-49.981C392.231,264.352,369.855,241.975,342.251,241.975z M342.251,306.879
	c-8.243,0-14.923-6.682-14.923-14.922c0-8.242,6.681-14.923,14.923-14.923c8.241,0,14.921,6.682,14.921,14.923
	C357.172,300.199,350.492,306.879,342.251,306.879z"/>
<g>
	<path style="fill:#202020;" d="M512,288.732c0-45.445-17.651-88.122-49.702-120.174c-34.601-34.601-82.463-52.586-131.324-49.386
		c-13.267-0.274-45.631-3.32-67.437-25.128c-3.996-3.997-7.569-8.54-10.627-13.513c-6.603-15.469-16.023-29.385-28.009-41.37
		C173.525-12.213,89.932-12.214,38.557,39.159C13.707,64.009,0.022,97.1,0.021,132.334c0,9.004,0.899,17.866,2.644,26.488
		c-8.815,43.551,4.518,88.08,35.891,119.452L221.951,461.67c32.051,32.05,74.729,49.7,120.174,49.7s88.122-17.65,120.173-49.7
		c38.218-38.22,55.964-92.86,47.655-146.43C511.302,306.55,512,297.697,512,288.732z M49.963,50.565
		C95.049,5.477,168.411,5.481,213.498,50.568c10.649,10.648,18.989,23.027,24.789,36.789c0.152,0.36,0.329,0.709,0.531,1.043
		c3.793,6.271,8.273,12.007,13.314,17.049c26.15,26.151,63.881,29.592,78.889,29.858c0.237,0.005,0.458-0.002,0.687-0.017
		c44.358-2.991,87.795,13.286,119.185,44.676c29.005,29.004,44.978,67.63,44.978,108.767c0,8.342-0.668,16.577-1.957,24.653
		c-0.031,0.141-0.066,0.281-0.089,0.425c-3.902,23.808-13.171,45.969-27.128,65.187c-0.105,0.145-0.21,0.292-0.316,0.438
		c-1.083,1.48-2.195,2.942-3.332,4.386c-0.152,0.192-0.306,0.382-0.459,0.573c-1.052,1.321-2.127,2.628-3.225,3.917
		c-0.133,0.156-0.262,0.315-0.397,0.471c-1.153,1.343-2.335,2.666-3.538,3.974c-0.261,0.285-0.526,0.568-0.79,0.85
		c-1.227,1.315-2.471,2.618-3.748,3.896c-0.927,0.927-1.862,1.838-2.806,2.735c-0.188,0.18-0.382,0.353-0.571,0.53
		c-0.768,0.723-1.537,1.441-2.315,2.145c-0.139,0.126-0.282,0.247-0.422,0.372c-0.843,0.756-1.689,1.505-2.544,2.24
		c-0.046,0.04-0.092,0.077-0.139,0.116c-25.688,21.999-56.967,34.146-88.83,36.44c-0.434,0.031-0.871,0.053-1.306,0.08
		c-0.759,0.048-1.517,0.099-2.276,0.135c-2.51,0.12-5.029,0.182-7.559,0.182s-5.052-0.062-7.561-0.182
		c-0.747-0.037-1.494-0.086-2.241-0.133c-0.447-0.028-0.897-0.051-1.343-0.082c-31.846-2.294-63.108-14.429-88.788-36.406
		c-0.061-0.053-0.124-0.103-0.185-0.156c-0.839-0.719-1.668-1.456-2.495-2.196c-0.156-0.14-0.314-0.274-0.469-0.415
		c-0.766-0.692-1.523-1.4-2.278-2.111c-0.201-0.189-0.405-0.372-0.605-0.562c-0.944-0.897-1.878-1.809-2.804-2.734L49.961,214.103
		c-0.884-0.884-1.747-1.785-2.599-2.694c-0.199-0.212-0.397-0.426-0.594-0.639c-1.768-1.914-3.472-3.877-5.1-5.897
		c-0.01-0.012-0.018-0.023-0.028-0.034c-11.214-13.921-19.04-30.246-22.849-47.829c-0.03-0.138-0.07-0.27-0.106-0.404
		c-1.671-7.889-2.535-16.013-2.535-24.273C16.149,101.408,28.159,72.368,49.963,50.565z M450.892,450.264
		c-29.004,29.005-67.631,44.977-108.767,44.977c-41.137,0-79.764-15.972-108.768-44.977L49.961,266.869
		c-19.193-19.192-30.696-44.001-33.281-70.224c4.38,7.822,9.586,15.227,15.573,22.102c0.074,0.086,0.152,0.17,0.227,0.256
		c0.827,0.944,1.669,1.877,2.525,2.801c0.223,0.24,0.444,0.48,0.668,0.718c0.946,1.006,1.904,2.005,2.885,2.987l183.395,183.397
		c1.023,1.023,2.056,2.029,3.1,3.021c0.215,0.204,0.434,0.402,0.651,0.605c0.84,0.791,1.683,1.578,2.537,2.35
		c0.16,0.145,0.324,0.285,0.484,0.429c0.924,0.829,1.854,1.652,2.792,2.459c0.052,0.045,0.104,0.087,0.157,0.132
		c30.721,26.337,69.46,40.704,110.452,40.704c40.936,0,79.622-14.328,110.324-40.596c0.101-0.086,0.203-0.17,0.304-0.256
		c0.875-0.753,1.741-1.519,2.603-2.291c0.224-0.2,0.451-0.394,0.673-0.596c0.742-0.671,1.473-1.357,2.205-2.043
		c0.328-0.306,0.659-0.605,0.985-0.915c0.7-0.667,1.389-1.348,2.08-2.028c0.332-0.327,0.67-0.645,1-0.974
		c1.468-1.468,2.895-2.966,4.302-4.477c0.262-0.282,0.526-0.563,0.787-0.846c1.368-1.489,2.709-2.999,4.018-4.529
		c0.187-0.218,0.37-0.44,0.555-0.659c1.305-1.541,2.584-3.099,3.829-4.68c0.058-0.074,0.119-0.147,0.177-0.221
		c1.316-1.676,2.592-3.378,3.841-5.098c0.129-0.177,0.257-0.355,0.385-0.532c5.216-7.242,9.836-14.84,13.814-22.743
		C489.037,397.017,474.151,427.006,450.892,450.264z"/>
	<path style="fill:#202020;" d="M365.237,291.958c0-12.675-10.312-22.988-22.986-22.988c-12.675,0-22.988,10.313-22.988,22.988
		s10.313,22.987,22.988,22.987C354.925,314.944,365.237,304.633,365.237,291.958z M335.392,291.958c0-3.783,3.076-6.859,6.859-6.859
		c3.782,0,6.857,3.076,6.857,6.859c0,3.782-3.075,6.858-6.857,6.858C338.468,298.815,335.392,295.739,335.392,291.958z"/>
	<path style="fill:#202020;" d="M400.295,291.957c0-32.007-26.039-58.045-58.044-58.045c-32.008,0-58.046,26.039-58.046,58.045
		s26.039,58.045,58.046,58.045C374.256,350.002,400.295,323.963,400.295,291.957z M300.332,291.957
		c0-23.113,18.804-41.917,41.918-41.917c23.113,0,41.916,18.804,41.916,41.917s-18.803,41.917-41.916,41.917
		C319.137,333.874,300.332,315.07,300.332,291.957z"/>
	<path style="fill:#202020;" d="M49.179,156.873c0.787,2.664,1.705,5.299,2.755,7.891c4.198,10.371,10.494,20.083,18.89,28.478
		c3.149,3.148,8.256,3.149,11.404-0.001c0.197-0.197,0.382-0.401,0.554-0.613c2.024-2.482,2.342-5.884,0.969-8.662
		c-0.38-0.768-0.883-1.49-1.523-2.13c-27.294-27.293-27.293-71.706,0.002-99.003c27.293-27.293,71.704-27.293,99,0.001
		c1.676,1.676,3.257,3.421,4.741,5.231c4.45,5.431,8.022,11.447,10.653,17.95c0.54,1.343,1.192,2.678,1.946,3.975
		c0.743,1.276,1.504,2.538,2.285,3.786c5.463,8.735,11.844,16.772,19.01,23.937c37.008,37.012,85.828,42.976,111.623,43.235
		c0.869,0.015,1.755-0.018,2.603-0.082c31.451-2.326,62.272,9.103,84.533,31.365c20.401,20.399,31.634,47.567,31.634,76.5
		c0,28.933-11.234,56.101-31.634,76.5c-20.399,20.4-47.566,31.634-76.5,31.634c-28.934,0-56.101-11.234-76.498-31.632
		l-164.604-164.69c-0.394-0.394-0.818-0.739-1.265-1.034c-1.342-0.886-2.889-1.33-4.438-1.33c-2.063,0-4.128,0.786-5.702,2.361
		c-3.15,3.148-3.152,8.255-0.003,11.404L254.22,376.636c21.248,21.247,48.879,33.844,78.614,36.019
		c3.076,0.225,6.175,0.339,9.291,0.339c33.241,0,64.459-12.913,87.905-36.358c23.445-23.446,36.356-54.664,36.356-87.905
		c0.001-33.24-12.912-64.459-36.356-87.905c-25.582-25.581-60.997-38.71-97.145-36.044c-0.397,0.029-0.795,0.041-1.225,0.038
		c-23.347-0.235-67.434-5.552-100.392-38.511c-7.207-7.206-13.519-15.427-18.756-24.423c-0.361-0.621-0.672-1.255-0.931-1.902
		c-4.33-10.704-10.705-20.313-18.947-28.557c-2.099-2.099-4.281-4.067-6.533-5.903c-33.798-27.547-83.792-25.58-115.276,5.902
		c-20.99,20.991-28.861,50.209-23.615,77.369C47.736,151.513,48.392,154.209,49.179,156.873z"/>
</g>
</svg>